<?xml version="1.0" encoding="utf-8"?>
<!-- Generator: Adobe Illustrator 20.1.0, SVG Export Plug-In . SVG Version: 6.00 Build 0)  -->
<svg version="1.1" id="Capa_1" xmlns="http://www.w3.org/2000/svg" xmlns:xlink="http://www.w3.org/1999/xlink" x="0px" y="0px"
	 viewBox="0 0 1280 1280" style="enable-background:new 0 0 1280 1280;" xml:space="preserve">
<style type="text/css">
	.st0{fill:#FFEB3B;stroke:#000000;stroke-miterlimit:10;}
	.st1{stroke:#000000;stroke-miterlimit:10;}
</style>
<g>
	<rect x="282" y="462" class="st0" width="192" height="192"/>
	<path class="st1" d="M378,621.4c-35,0-63.4-28.4-63.4-63.4s28.4-63.4,63.4-63.4s63.4,28.4,63.4,63.4S413,621.4,378,621.4z
		 M417.9,558c0-22-17.9-39.9-39.9-39.9S338.1,536,338.1,558s17.9,39.9,39.9,39.9S417.9,580,417.9,558z"/>
	<g>
		<g>
			<rect x="454.4" y="482.2" width="11.1" height="151.5"/>
			<path d="M465,482.7v150.5h-10.1V482.7H465 M466,481.7h-12.1v152.5H466V481.7L466,481.7z"/>
		</g>
		<g>
			<rect x="442.2" y="482.2" width="11.2" height="11.4"/>
			<path d="M452.9,482.7v10.4h-10.2v-10.4H452.9 M453.9,481.7h-12.2v12.4h12.2V481.7L453.9,481.7z"/>
		</g>
		<g>
			<rect x="442.2" y="622.2" width="11.2" height="11.4"/>
			<path d="M452.9,622.7v10.4h-10.2v-10.4H452.9 M453.9,621.7h-12.2v12.4h12.2V621.7L453.9,621.7z"/>
		</g>
	</g>
	<g>
		<g>
			<rect x="290.5" y="482.2" width="11.1" height="151.5"/>
			<path d="M301.1,482.7v150.5H291V482.7H301.1 M302.1,481.7H290v152.5h12.1V481.7L302.1,481.7z"/>
		</g>
		<g>
			<rect x="302.6" y="482.2" width="11.2" height="11.4"/>
			<path d="M313.3,482.7v10.4h-10.2v-10.4H313.3 M314.3,481.7h-12.2v12.4h12.2V481.7L314.3,481.7z"/>
		</g>
		<g>
			<rect x="302.6" y="622.2" width="11.2" height="11.4"/>
			<path d="M313.3,622.7v10.4h-10.2v-10.4H313.3 M314.3,621.7h-12.2v12.4h12.2V621.7L314.3,621.7z"/>
		</g>
	</g>
</g>
</svg>
